<?xml version="1.0" standalone="no"?>
<!DOCTYPE svg PUBLIC "-//W3C//DTD SVG 1.1//EN" "http://www.w3.org/Graphics/SVG/1.1/DTD/svg11.dtd">
<svg class="icon" width="200px" height="200.00px" viewBox="0 0 24 24" version="1.1" xmlns="http://www.w3.org/2000/svg">
	<path fill="#707070" d="M863.7 692.8h-81.6V446.4c0-146.7-105.1-268.5-239.4-285.6 1-3.1 2-6.3 2-9.8 0-17.7-14.3-32-32-32s-32 14.3-32 32c0 3.2 0.9 6.2 1.8 9.1C346 175 238.7 298.1 238.7 446.4v246.4H157v64h81.6v1.2h543.5v-1.2h81.6v-64zM302.6 446.4c0-123.4 93.2-223.8 207.7-223.8C624.8 222.6 718 323 718 446.4v246.4H302.6V446.4zM510.3 832.5c-20.7 0-37.6-16.9-37.6-37.6h-64c0 56.1 45.6 101.7 101.7 101.7S612 851 612 794.9h-64c0 20.7-16.9 37.6-37.7 37.6z" />
</svg>
