<?xml version="1.0" standalone="no"?><!DOCTYPE svg PUBLIC "-//W3C//DTD SVG 1.1//EN" "http://www.w3.org/Graphics/SVG/1.1/DTD/svg11.dtd"><svg t="1624261896017" class="icon" viewBox="0 0 1024 1024" version="1.1" xmlns="http://www.w3.org/2000/svg" p-id="14353" xmlns:xlink="http://www.w3.org/1999/xlink" width="200" height="200"><defs><style type="text/css"></style></defs><path d="M926.442169 372.934472c48.654311-53.159339 16.361445-208.767128 8.231916-187.511584-8.129529 21.357932-41.753426 24.409065-41.753426 24.409065s14.231795-11.180662 5.057919-93.704598c-9.091967-82.585368-38.702293-116.16831-38.702293-116.16831s-20.395494 31.555679-62.148919 72.326189-110.066044 44.804559-110.066044 44.804559 3.051133-11.160185 6.102266-30.040351c3.051133-18.859689-4.034048-40.279053-4.034048-40.279052s-9.153399 13.310312-58.114871 44.865991c-25.514845 16.48431-39.070886 21.849389-46.278932 23.200898a457.465193 457.465193 0 1 0 215.115124 807.157812 457.424239 457.424239 0 0 0 126.57083-549.183484v0.122865z m-553.094668 371.13246h-58.852057v-113.833886H197.057535v113.792932H138.266909V468.21583H197.057535v111.274211h117.437909v-111.335643h58.770148V743.944068l0.081909 0.122864z m167.361819-240.507103c-23.016601 0-41.139104 8.539077-54.326552 25.637709-13.310312 17.098632-19.904036 39.255182-19.904036 66.408219 0 26.845876 6.470859 48.777175 19.412579 65.793898 12.941719 17.0372 30.695628 25.514845 53.220771 25.514844 23.016601 0 40.954807-8.109052 53.773662-24.409065 12.818855-16.361445 19.228282-38.272267 19.228282-65.793897 0-28.750274-6.225131-51.459715-18.675392-68.128321-12.450261-16.668606-30.019873-25.023387-52.729314-25.023387z m111.335642 205.101673c-25.023387 26.804921-57.746278 40.156188-98.209627 40.156188-39.500911 0-71.60948-13.003151-96.325706-38.948021-24.654794-25.883438-36.982191-59.282083-36.98219-100.114026 0-43.227799 12.573126-78.3875 37.842241-105.540537 25.207684-27.091605 58.544897-40.647646 99.929729-40.647646 39.439479 0 71.118022 13.126016 95.219926 39.378047 23.999517 26.252031 36.019753 59.93736 36.019753 101.076463 0 42.98207-12.532171 77.896043-37.494126 104.639532z m258.629606-192.405683h-78.735616v227.749681h-58.893013V516.378683h-78.489887v-48.224285h216.077561v48.039989l0.040955 0.061432z m0 0" p-id="14354" fill="#ff6347"></path></svg>