<?xml version="1.0" standalone="no"?><!DOCTYPE svg PUBLIC "-//W3C//DTD SVG 1.1//EN" "http://www.w3.org/Graphics/SVG/1.1/DTD/svg11.dtd"><svg t="1624262745777" class="icon" viewBox="0 0 1024 1024" version="1.1" xmlns="http://www.w3.org/2000/svg" p-id="29172" xmlns:xlink="http://www.w3.org/1999/xlink" width="200" height="200"><defs><style type="text/css"></style></defs><path d="M722.44 348.294l-29.249-4.55-77.996-11.7-34.578-72.926-13-27.558c-27.298-57.067-85.145-57.067-112.444 0l-13 27.558-34.577 72.927-77.996 11.7-29.249 4.549c-60.837 9.23-77.996 66.817-34.578 111.664l22.099 21.06 56.027 56.546-13 79.556-4.94 30.029c-10.659 63.177 36.529 99.445 90.996 69.806l25.999-14.299 69.156-37.698 69.157 37.698 25.999 14.3c54.467 29.638 101.264-6.11 90.995-69.807l-4.81-29.639-13-79.556 56.028-56.937 20.929-21.449c43.418-44.457 25.869-102.045-34.968-111.274zM841.904 0.041a151.832 151.832 0 0 1 155.082 148.453v821.559c0 41.208-33.148 63.437-73.186 50.047L511.98 883.997 100.161 1020.1c-40.688 13.39-73.186-8.97-73.186-50.047V148.494A151.572 151.572 0 0 1 182.057 0.041z" p-id="29173" fill="#ff6347"></path></svg>