<?xml version="1.0" standalone="no"?><!DOCTYPE svg PUBLIC "-//W3C//DTD SVG 1.1//EN" "http://www.w3.org/Graphics/SVG/1.1/DTD/svg11.dtd"><svg class="icon" width="200px" height="199.80px" viewBox="0 0 1025 1024" version="1.1" xmlns="http://www.w3.org/2000/svg"><path fill="#707070" d="M805.854069 977.4592c-6.820571 0-13.642971-1.892571-19.679086-5.750857L512.000812 796.781714l-274.176 174.926629c-12.750629 8.107886-29.070629 7.572114-41.179429-1.250743-12.178286-8.8192-17.6768-24.212114-13.891657-38.747429l81.749943-314.817829L13.32744 410.250971c-11.607771-9.570743-16.1792-25.250743-11.536457-39.535543 4.642743-14.321371 17.570743-24.32 32.570514-25.214171l324.675657-19.607771 118.926629-302.676114C483.465955 9.219657 496.966297 0.005486 512.000812 0.005486s28.534857 9.214171 34.0352 23.213714l118.926629 302.676114 324.675657 19.607771c14.999771 0.892343 27.927771 10.8928 32.570514 25.214171 4.642743 14.2848 0.071314 29.9648-11.536457 39.535543L759.497955 616.892343l81.749943 314.817829c3.785143 14.535314-1.7152 29.928229-13.893486 38.747429C820.961726 975.102171 813.426183 977.4592 805.854069 977.4592zM512.000812 716.818286c6.820571 0 13.677714 1.929143 19.679086 5.750857l215.389257 137.428114-64.212114-247.317943c-3.5712-13.750857 1.179429-28.357486 12.143543-37.429029l197.319314-162.357029-255.069257-15.392914c-14.213486-0.8576-26.605714-9.892571-31.818971-23.1424L512.000812 136.574171l-93.4272 237.783771c-5.215086 13.249829-17.607314 22.286629-31.8208 23.1424l-255.069257 15.392914 197.319314 162.357029c10.964114 9.071543 15.714743 23.678171 12.143543 37.429029l-64.213943 247.317943 215.391086-137.428114C498.323097 718.7456 505.18024 716.818286 512.000812 716.818286z" /></svg>